<?xml version="1.0" standalone="no"?>
<!DOCTYPE svg PUBLIC "-//W3C//DTD SVG 20010904//EN"
 "http://www.w3.org/TR/2001/REC-SVG-20010904/DTD/svg10.dtd">
<svg version="1.0" xmlns="http://www.w3.org/2000/svg"
 width="512.000000pt" height="512.000000pt" viewBox="0 0 512.000000 512.000000"
 preserveAspectRatio="xMidYMid meet">
<metadata>
Created by potrace 1.14, written by Peter Selinger 2001-2017
</metadata>
<g transform="translate(0.000000,512.000000) scale(0.100000,-0.100000)"
fill="#000000" stroke="none">
<path d="M0 2560 l0 -2560 2560 0 2560 0 0 2560 0 2560 -2560 0 -2560 0 0
-2560z m2507 1733 c-3 -10 -5 -4 -5 12 0 17 2 24 5 18 2 -7 2 -21 0 -30z m473
-77 c0 -2 -8 -10 -17 -17 -16 -13 -17 -12 -4 4 13 16 21 21 21 13z m-42 -43
c-10 -2 -18 -9 -18 -14 0 -5 -8 -9 -17 -9 -16 1 -16 2 1 15 11 8 27 14 35 14
13 -1 12 -2 -1 -6z m-288 -53 c0 -5 -5 -10 -11 -10 -5 0 -7 5 -4 10 3 6 8 10
11 10 2 0 4 -4 4 -10z m195 -25 c-16 -13 -31 -22 -34 -20 -8 8 32 45 48 45 11
-1 7 -8 -14 -25z m-262 -32 c-7 -2 -21 -2 -30 0 -10 3 -4 5 12 5 17 0 24 -2
18 -5z m-210 -53 c-7 -28 -13 -25 -13 6 0 14 4 23 9 20 5 -3 7 -15 4 -26z m42
20 c-3 -5 -12 -10 -18 -10 -7 0 -6 4 3 10 19 12 23 12 15 0z m85 -36 c0 -2
-11 -4 -25 -4 -14 0 -25 4 -25 9 0 4 11 6 25 3 14 -2 25 -6 25 -8z m83 -1 c-7
-2 -21 -2 -30 0 -10 3 -4 5 12 5 17 0 24 -2 18 -5z m423 -78 c-15 -14 -30 -25
-33 -25 -4 0 4 11 17 25 13 14 28 25 33 25 6 0 -2 -11 -17 -25z m29 -131 c-11
-8 -19 -20 -17 -25 2 -11 -12 -12 -22 -2 -7 8 33 43 49 42 6 0 1 -7 -10 -15z
m-10 -154 c-3 -5 -10 -10 -16 -10 -5 0 -9 5 -9 10 0 6 7 10 16 10 8 0 12 -4 9
-10z m15 -120 c-14 -11 -29 -20 -35 -20 -5 0 1 9 15 20 14 11 30 20 35 20 6 0
-1 -9 -15 -20z m-10 -160 c-12 -12 -25 -18 -31 -14 -6 3 -3 11 8 20 28 21 46
17 23 -6z m20 -165 c-7 -8 -17 -15 -22 -15 -6 0 -5 7 2 15 7 8 17 15 22 15 6
0 5 -7 -2 -15z m7 -152 c-9 -9 -19 -14 -23 -11 -10 10 6 28 24 28 15 0 15 -1
-1 -17z m28 -138 c-30 -24 -45 -31 -45 -19 0 11 45 43 60 44 9 0 3 -10 -15
-25z m25 -104 c0 -6 -13 -18 -29 -27 -17 -10 -28 -21 -25 -26 3 -4 0 -8 -5 -8
-19 0 -12 13 22 41 37 32 37 32 37 20z m-28 -153 c-25 -15 -30 -23 -20 -29 15
-10 7 -12 -16 -3 -12 5 -10 10 12 30 15 13 34 23 42 24 8 0 0 -10 -18 -22z
m28 -108 c0 -5 -5 -10 -11 -10 -5 0 -7 5 -4 10 3 6 8 10 11 10 2 0 4 -4 4 -10z
m-35 -35 c-16 -8 -41 -14 -55 -14 -22 0 -20 2 10 13 49 19 85 19 45 1z m-692
-32 c37 -3 67 -9 67 -13 0 -8 -134 7 -175 20 -29 10 -29 10 5 4 19 -3 65 -8
103 -11z m606 12 c-9 -9 -179 -13 -179 -4 0 5 41 9 92 9 50 0 89 -2 87 -5z
m-339 -20 c0 -12 -33 -55 -42 -55 -5 0 -6 6 -1 13 8 12 9 17 12 37 1 10 31 15
31 5z m-30 -69 c0 -3 -4 -8 -10 -11 -5 -3 -10 -1 -10 4 0 6 5 11 10 11 6 0 10
-2 10 -4z m-30 -70 c0 -3 -4 -8 -10 -11 -5 -3 -10 -1 -10 4 0 6 5 11 10 11 6
0 10 -2 10 -4z m-10 -30 c0 -3 -4 -8 -10 -11 -5 -3 -10 -1 -10 4 0 6 5 11 10
11 6 0 10 -2 10 -4z m-20 -40 c0 -3 -4 -8 -10 -11 -5 -3 -10 -1 -10 4 0 6 5
11 10 11 6 0 10 -2 10 -4z m-28 -48 c-7 -7 -12 -8 -12 -2 0 6 3 14 7 17 3 4 9
5 12 2 2 -3 -1 -11 -7 -17z m-12 -32 c0 -2 -7 -9 -15 -16 -13 -11 -14 -10 -9
4 5 14 24 23 24 12z m-35 -55 c-3 -6 -11 -11 -17 -11 -6 0 -6 6 2 15 14 17 26
13 15 -4z m-15 -24 c0 -2 -10 -12 -21 -23 -22 -19 -22 -19 -10 4 10 18 31 31
31 19z m-40 -62 c-7 -8 -17 -15 -22 -15 -6 0 -5 7 2 15 7 8 17 15 22 15 6 0 5
-7 -2 -15z m-40 -50 c-7 -8 -17 -15 -22 -15 -6 0 -5 7 2 15 7 8 17 15 22 15 6
0 5 -7 -2 -15z m-30 -43 c0 -4 -9 -13 -21 -20 -19 -12 -19 -11 -9 8 10 19 30
28 30 12z m-40 -56 c0 -2 -11 -11 -25 -20 -25 -17 -25 -16 -13 4 11 17 38 29
38 16z m-50 -54 c0 -4 -9 -13 -21 -20 -19 -12 -19 -11 -9 8 10 19 30 28 30 12z
m-60 -67 c-13 -14 -26 -23 -28 -20 -7 7 29 45 41 45 6 0 0 -11 -13 -25z m-50
-60 c-7 -9 -15 -13 -17 -11 -7 7 7 26 19 26 6 0 6 -6 -2 -15z m-31 -48 c-2 -1
-12 -9 -22 -16 -15 -12 -17 -12 -11 3 3 9 13 16 22 16 8 0 13 -1 11 -3z m-49
-62 c-7 -9 -15 -13 -17 -11 -7 7 7 26 19 26 6 0 6 -6 -2 -15z m-30 -40 c-7 -9
-15 -13 -17 -11 -7 7 7 26 19 26 6 0 6 -6 -2 -15z m-30 -50 c-7 -9 -15 -13
-17 -11 -7 7 7 26 19 26 6 0 6 -6 -2 -15z m-15 -35 c-3 -5 -11 -10 -16 -10 -6
0 -7 5 -4 10 3 6 11 10 16 10 6 0 7 -4 4 -10z m-15 -29 c0 -6 -4 -13 -10 -16
-5 -3 -10 1 -10 9 0 9 5 16 10 16 6 0 10 -4 10 -9z m-20 -41 c0 -5 -5 -10 -11
-10 -5 0 -7 5 -4 10 3 6 8 10 11 10 2 0 4 -4 4 -10z m0 -24 c0 -3 -4 -8 -10
-11 -5 -3 -10 -1 -10 4 0 6 5 11 10 11 6 0 10 -2 10 -4z m-10 -36 c0 -5 -4
-10 -10 -10 -5 0 -10 5 -10 10 0 6 5 10 10 10 6 0 10 -4 10 -10z m8 -175 c-3
-3 -9 2 -12 12 -6 14 -5 15 5 6 7 -7 10 -15 7 -18z m1545 -55 c-5 -19 -23 -39
-23 -25 0 9 20 45 24 45 2 0 2 -9 -1 -20z m-23 -55 c-7 -9 -15 -13 -17 -11 -7
7 7 26 19 26 6 0 6 -6 -2 -15z m-30 -50 c-7 -8 -17 -15 -22 -15 -6 0 -5 7 2
15 7 8 17 15 22 15 6 0 5 -7 -2 -15z m-25 -35 c-3 -5 -20 -19 -38 -31 l-32
-22 29 31 c28 30 55 44 41 22z m-95 -90 c-50 -38 -130 -82 -142 -78 -7 3 10
16 37 30 28 14 61 35 75 47 14 11 32 20 40 20 10 1 6 -6 -10 -19z m-160 -88
c0 -12 -141 -58 -235 -78 -44 -8 -145 -17 -225 -19 l-145 -4 130 9 c162 11
288 33 385 70 87 32 90 33 90 22z m-960 -22 c8 -5 11 -10 5 -10 -5 0 -17 5
-25 10 -8 5 -10 10 -5 10 6 0 17 -5 25 -10z m65 -20 c13 -5 14 -9 5 -9 -8 0
-24 4 -35 9 -13 5 -14 9 -5 9 8 0 24 -4 35 -9z m52 -16 c-3 -3 -12 -4 -19 -1
-8 3 -5 6 6 6 11 1 17 -2 13 -5z m88 -14 l30 -8 -30 0 c-16 0 -41 4 -55 8
l-25 8 25 0 c14 0 39 -4 55 -8z m123 -17 c-15 -2 -42 -2 -60 0 -18 2 -6 4 27
4 33 0 48 -2 33 -4z"/>
</g>
</svg>
